<?xml version="1.0" encoding="UTF-8"?>
<svg id="Layer_1" xmlns="http://www.w3.org/2000/svg" version="1.1" xmlns:xlink="http://www.w3.org/1999/xlink" viewBox="0 0 474.03 344.5">
  <!-- Generator: Adobe Illustrator 29.3.0, SVG Export Plug-In . SVG Version: 2.1.0 Build 146)  -->
  <defs>
    <style>
      .st0 {
        fill: url(#linear-gradient1);
      }

      .st1 {
        fill: #1c5e3a;
      }

      .st2 {
        font-family: Exo2-SemiBold, 'Exo 2';
        font-size: 70px;
        font-weight: 600;
      }

      .st3 {
        fill: #6ab78a;
      }

      .st4 {
        fill: url(#linear-gradient);
      }
    </style>
    <linearGradient id="linear-gradient" x1="234.51" y1="279.01" x2="234.51" y2="4.38" gradientUnits="userSpaceOnUse">
      <stop offset="0" stop-color="#a8d4b9"/>
      <stop offset=".15" stop-color="#a4d2b6"/>
      <stop offset=".26" stop-color="#9bccae"/>
      <stop offset=".36" stop-color="#8ac2a1"/>
      <stop offset=".45" stop-color="#73b48f"/>
      <stop offset=".54" stop-color="#56a277"/>
      <stop offset=".57" stop-color="#4a9b6e"/>
      <stop offset="1" stop-color="#1c5e3a"/>
    </linearGradient>
    <linearGradient id="linear-gradient1" x1="234.52" y1="22.48" x2="234.52" y2="184.27" gradientUnits="userSpaceOnUse">
      <stop offset="0" stop-color="#a8d4b9"/>
      <stop offset=".12" stop-color="#a4d2b6"/>
      <stop offset=".2" stop-color="#9bccae"/>
      <stop offset=".28" stop-color="#8ac2a1"/>
      <stop offset=".36" stop-color="#73b48f"/>
      <stop offset=".43" stop-color="#56a277"/>
      <stop offset=".45" stop-color="#4a9b6e"/>
      <stop offset="1" stop-color="#1c5e3a"/>
    </linearGradient>
  </defs>
  <g>
    <path class="st4" d="M289.78,36.49c-.79-.69-1.95-1.16-3.15-1.38l-9.48,17.15c12.66,11.52,20.19,28.37,20.19,47.11,0,34.64-28.18,75.04-62.82,75.04s-62.82-40.4-62.82-75.04c0-18.74,7.53-35.59,20.18-47.11l-9.48-17.15c-1.2.21-2.36.69-3.15,1.38-17.46,15.36-28.49,37.86-28.49,62.89,0,46.18,37.57,94.01,83.76,94.01s83.76-47.83,83.76-94.01c0-25.02-11.03-47.52-28.49-62.89Z"/>
    <path class="st0" d="M185.28,35.17c-.85-.24-1.88-.24-2.88-.06l49.34,89.25c1.54,2.78,4.03,2.78,5.56,0l49.34-89.25c-1.01-.18-2.03-.18-2.88.06l-19.86,5.48c-1.86.51-4.13,2.29-5.08,3.97l-24.29,42.89-24.29-42.89c-.95-1.68-3.22-3.45-5.08-3.97l-19.86-5.48Z"/>
  </g>
  <text class="st2" transform="translate(60.67 279.02)"><tspan class="st3" x="0" y="0">Vital </tspan><tspan class="st1" x="166.81" y="0">Heart</tspan></text>
</svg>